# xmcd
#
# Track frame offsets: 
#        150
#        16637
#        33997
#        44820
#        55357
#        72930
#        94982
#        121267
#        147837
#        177550
#        230302
#
# Disc length: 3281 seconds
#
# Revision: 7
# Processed by: cddbd v1.5.2PL0 Copyright (c) Steve Scherf et al.
# Submitted via: ExactAudioCopyFreeDBPlugin 1.0
#
DISCID=970ccf0b
DTITLE=Various Artist - Moods Of La Habana - CD 2
DYEAR=1999
DGENRE=Latin
TTITLE0=Cuarteto Carenas - Moliendo Café
TTITLE1=Cuarteto Carenas - Romance Guajiro
TTITLE2=Cuarteto Carenas - Caimán No Come Caimán
TTITLE3=Cuarteto Carenas - Ojos Malignos
TTITLE4=Cuarteto Carenas - Ay Sabroso (Me Dirás Que Sabroso)
TTITLE5=Cuarteto Carenas - Mi Veneración
TTITLE6=Clave Y Guaguancó - Abó Loritza
TTITLE7=Clave Y Guaguancó - Tambores Batá
TTITLE8=Clave Y Guaguancó - Maileo
TTITLE9=Clave Y Guaguancó - El Transformador
TTITLE10=Frank Emilio Flynn - El Bombín De Barreto
EXTD=
EXTT0=Cuarteto Carenas
EXTT1=Cuarteto Carenas
EXTT2=Cuarteto Carenas
EXTT3=Cuarteto Carenas
EXTT4=Cuarteto Carenas
EXTT5=Cuarteto Carenas
EXTT6=Clave Y Guaguancó
EXTT7=Clave Y Guaguancó
EXTT8=Clave Y Guaguancó
EXTT9=Clave Y Guaguancó
EXTT10=Frank Emilio Flynn
PLAYORDER=
